# xmcd
#
# Track frame offsets:
#	150
#	14931
#	42905
#	58174
#	77316
#	96263
#	118707
#	135731
#	151000
#	180095
#
# Disc length: 2727 seconds
#
# Revision: 0
# Processed by: cddbd v1.5.1PL2 Copyright (c) Steve Scherf et al.
# Submitted via: dBpowerAMP V4.0
#
DISCID=770aa50a
DTITLE=Andrew Black and The Believers - Live at Fee-Lay Gumbo
DYEAR=1900
DGENRE=Blues
TTITLE0=01 - Big Daddy
TTITLE1=02 - Only The Blues
TTITLE2=03 - Fishin' In A Well
TTITLE3=04 - Real Mutha Fa' Ya'
TTITLE4=05 - C.O.D.
TTITLE5=06 - I'll Play The Blues For You
TTITLE6=07 - So Many Roads
TTITLE7=08 - Her Mind Is Gone
TTITLE8=09 - That's What The Blues Is Alll About
TTITLE9=10 - I Don't Know Why
EXTD=
EXTT0=
EXTT1=
EXTT2=
EXTT3=
EXTT4=
EXTT5=
EXTT6=
EXTT7=
EXTT8=
EXTT9=
PLAYORDER=
